<svg width="58.562" height="13.356" viewBox="0 0 58.562 13.356" xmlns="http://www.w3.org/2000/svg"><g id="svgGroup" stroke-linecap="round" fill-rule="evenodd" font-size="9pt" stroke-width="0mm">

<style>
    path {
        fill: #1f2328;
    }
    @media (prefers-color-scheme: dark) {
        path {
            fill: #f0f6fc; 
        }
    }
</style>

<path d="M 7.07 7.252 L 7 7.252 Q 6.748 7.77 6.258 8.12 A 1.826 1.826 0 0 1 5.567 8.417 A 2.603 2.603 0 0 1 5.026 8.47 A 2.533 2.533 0 0 1 4.327 8.379 A 1.847 1.847 0 0 1 3.381 7.756 A 2.482 2.482 0 0 1 2.903 6.776 Q 2.813 6.414 2.802 5.989 A 4.616 4.616 0 0 1 2.8 5.866 Q 2.8 4.942 3.164 4.235 Q 3.528 3.528 4.193 3.122 A 2.744 2.744 0 0 1 5.21 2.758 A 3.608 3.608 0 0 1 5.768 2.716 Q 6.384 2.716 6.979 2.821 A 9.079 9.079 0 0 1 7.326 2.889 Q 7.642 2.957 7.86 3.034 A 2.499 2.499 0 0 1 7.91 3.052 L 7.77 5.894 Q 7.757 6.126 7.756 6.234 A 1.85 1.85 0 0 0 7.756 6.251 L 7.756 6.398 Q 7.756 6.94 7.9 7.211 A 0.567 0.567 0 0 0 8.015 7.364 Q 8.274 7.602 8.624 7.602 A 0.912 0.912 0 0 0 9.306 7.304 A 1.25 1.25 0 0 0 9.359 7.245 Q 9.62 6.935 9.776 6.447 A 3.618 3.618 0 0 0 9.821 6.293 A 4.606 4.606 0 0 0 9.959 5.503 A 5.776 5.776 0 0 0 9.982 4.984 A 5.393 5.393 0 0 0 9.895 3.992 Q 9.781 3.379 9.514 2.881 A 3.358 3.358 0 0 0 9.457 2.779 Q 8.932 1.876 8.015 1.4 A 4.243 4.243 0 0 0 6.502 0.954 A 5.261 5.261 0 0 0 5.936 0.924 A 6.388 6.388 0 0 0 4.821 1.017 A 4.879 4.879 0 0 0 3.822 1.302 A 4.353 4.353 0 0 0 2.672 1.986 A 3.979 3.979 0 0 0 2.275 2.366 Q 1.652 3.052 1.33 3.983 A 5.871 5.871 0 0 0 1.04 5.35 A 7.215 7.215 0 0 0 1.008 6.034 A 6.42 6.42 0 0 0 1.089 7.081 Q 1.207 7.796 1.498 8.365 Q 1.988 9.324 2.933 9.821 A 4.113 4.113 0 0 0 4.021 10.201 Q 4.497 10.3 5.045 10.315 A 7.313 7.313 0 0 0 5.25 10.318 A 6.964 6.964 0 0 0 6.679 10.175 A 6.385 6.385 0 0 0 6.881 10.129 Q 7.633 9.946 8.221 9.73 A 8.883 8.883 0 0 0 8.26 9.716 L 8.26 10.668 A 6.911 6.911 0 0 1 7.536 10.923 A 8.802 8.802 0 0 1 6.909 11.081 A 7.063 7.063 0 0 1 6.016 11.211 A 9.161 9.161 0 0 1 5.25 11.242 A 7.404 7.404 0 0 1 3.918 11.128 Q 3.131 10.984 2.485 10.659 A 4.617 4.617 0 0 1 2.422 10.626 Q 1.246 10.01 0.623 8.855 A 5.027 5.027 0 0 1 0.119 7.407 Q 0.002 6.796 0 6.098 A 8.417 8.417 0 0 1 0 6.076 A 7.34 7.34 0 0 1 0.183 4.412 A 6.435 6.435 0 0 1 0.406 3.661 A 5.584 5.584 0 0 1 1.528 1.787 A 5.409 5.409 0 0 1 1.582 1.729 Q 2.352 0.91 3.451 0.455 A 5.931 5.931 0 0 1 4.977 0.059 A 7.584 7.584 0 0 1 5.936 0 A 6.071 6.071 0 0 1 7.233 0.134 A 5.185 5.185 0 0 1 7.945 0.343 Q 8.862 0.686 9.541 1.337 A 4.429 4.429 0 0 1 10.568 2.855 A 5.082 5.082 0 0 1 10.591 2.912 A 5.094 5.094 0 0 1 10.91 4.16 A 6.514 6.514 0 0 1 10.962 4.998 Q 10.962 5.642 10.815 6.258 A 3.862 3.862 0 0 1 10.504 7.115 A 3.474 3.474 0 0 1 10.36 7.371 A 2.687 2.687 0 0 1 9.87 7.962 A 2.426 2.426 0 0 1 9.604 8.169 A 1.764 1.764 0 0 1 8.84 8.451 A 2.286 2.286 0 0 1 8.54 8.47 A 1.801 1.801 0 0 1 8.114 8.422 A 1.222 1.222 0 0 1 7.525 8.099 A 1.678 1.678 0 0 1 7.202 7.655 A 1.492 1.492 0 0 1 7.07 7.252 Z M 23.464 10.024 L 20.44 2.492 L 21.756 2.492 L 23.38 6.762 A 29.641 29.641 0 0 1 23.578 7.313 A 26.006 26.006 0 0 1 23.639 7.49 A 19.188 19.188 0 0 1 23.806 8.003 A 17.161 17.161 0 0 1 23.856 8.169 A 6.196 6.196 0 0 1 23.979 8.651 A 5.397 5.397 0 0 1 24.01 8.806 L 24.066 8.806 Q 24.146 8.472 24.316 7.94 A 25.524 25.524 0 0 1 24.332 7.889 Q 24.514 7.322 24.71 6.748 L 26.236 2.492 L 27.566 2.492 L 24.332 11.032 A 6.607 6.607 0 0 1 24.014 11.745 A 5.153 5.153 0 0 1 23.709 12.257 A 2.682 2.682 0 0 1 23.174 12.844 A 2.42 2.42 0 0 1 22.841 13.069 A 2.165 2.165 0 0 1 22.198 13.301 Q 21.929 13.354 21.622 13.356 A 3.674 3.674 0 0 1 21.602 13.356 Q 21.266 13.356 21.014 13.321 A 6.69 6.69 0 0 1 20.835 13.294 Q 20.694 13.27 20.58 13.244 L 20.58 12.264 Q 20.734 12.292 20.951 12.32 A 3.445 3.445 0 0 0 21.288 12.346 A 3.915 3.915 0 0 0 21.406 12.348 A 1.968 1.968 0 0 0 21.763 12.317 A 1.424 1.424 0 0 0 22.155 12.187 A 1.536 1.536 0 0 0 22.676 11.748 A 1.782 1.782 0 0 0 22.694 11.725 A 2.67 2.67 0 0 0 22.947 11.308 A 3.346 3.346 0 0 0 23.072 11.018 L 23.464 10.024 Z M 19.292 5.11 L 19.292 9.996 L 18.074 9.996 L 18.074 5.194 A 3.25 3.25 0 0 0 18.038 4.694 Q 17.954 4.151 17.668 3.836 Q 17.262 3.388 16.394 3.388 Q 15.67 3.388 15.206 3.625 A 1.401 1.401 0 0 0 14.672 4.088 Q 14.196 4.788 14.196 6.104 L 14.196 9.996 L 12.964 9.996 L 12.964 2.492 L 13.958 2.492 L 14.14 3.514 L 14.21 3.514 Q 14.462 3.122 14.833 2.863 Q 15.204 2.604 15.652 2.478 Q 16.1 2.352 16.576 2.352 A 4.423 4.423 0 0 1 17.347 2.415 Q 17.765 2.489 18.094 2.65 A 2.047 2.047 0 0 1 18.606 3.003 A 1.939 1.939 0 0 1 19.075 3.727 Q 19.292 4.291 19.292 5.11 Z M 58.562 5.11 L 58.562 9.996 L 57.344 9.996 L 57.344 5.194 A 3.25 3.25 0 0 0 57.308 4.694 Q 57.224 4.151 56.938 3.836 Q 56.532 3.388 55.664 3.388 Q 54.94 3.388 54.476 3.625 A 1.401 1.401 0 0 0 53.942 4.088 Q 53.466 4.788 53.466 6.104 L 53.466 9.996 L 52.234 9.996 L 52.234 2.492 L 53.228 2.492 L 53.41 3.514 L 53.48 3.514 Q 53.732 3.122 54.103 2.863 Q 54.474 2.604 54.922 2.478 Q 55.37 2.352 55.846 2.352 A 4.423 4.423 0 0 1 56.617 2.415 Q 57.035 2.489 57.364 2.65 A 2.047 2.047 0 0 1 57.876 3.003 A 1.939 1.939 0 0 1 58.345 3.727 Q 58.562 4.291 58.562 5.11 Z M 27.566 2.492 L 30.408 9.996 L 31.822 9.996 L 34.678 2.492 L 33.362 2.492 L 31.766 6.916 Q 31.711 7.081 31.645 7.273 A 53.643 53.643 0 0 1 31.535 7.588 A 18.147 18.147 0 0 0 31.47 7.775 A 15.812 15.812 0 0 0 31.297 8.316 A 18.451 18.451 0 0 0 31.292 8.333 Q 31.217 8.585 31.167 8.778 A 6.483 6.483 0 0 0 31.136 8.904 L 31.08 8.904 Q 31.054 8.753 31.004 8.561 A 8.453 8.453 0 0 0 30.94 8.323 A 15.519 15.519 0 0 0 30.876 8.105 A 18.341 18.341 0 0 0 30.716 7.602 Q 30.59 7.224 30.478 6.916 L 28.882 2.492 L 27.566 2.492 Z M 41.86 5.74 L 41.86 6.482 L 36.722 6.482 A 4.274 4.274 0 0 0 36.801 7.236 Q 36.885 7.648 37.055 7.972 A 2.055 2.055 0 0 0 37.373 8.421 A 2.036 2.036 0 0 0 38.435 9.014 A 3.063 3.063 0 0 0 39.116 9.086 A 6.534 6.534 0 0 0 39.75 9.057 Q 40.067 9.026 40.344 8.962 A 3.919 3.919 0 0 0 40.383 8.953 A 6.756 6.756 0 0 0 41.155 8.716 A 8.077 8.077 0 0 0 41.524 8.568 L 41.524 9.646 A 6.053 6.053 0 0 1 40.68 9.947 A 5.307 5.307 0 0 1 40.39 10.017 A 5.017 5.017 0 0 1 39.865 10.098 Q 39.594 10.126 39.287 10.133 A 9.365 9.365 0 0 1 39.06 10.136 Q 37.996 10.136 37.177 9.702 Q 36.358 9.268 35.903 8.407 A 3.737 3.737 0 0 1 35.555 7.417 Q 35.448 6.904 35.448 6.3 A 6.163 6.163 0 0 1 35.522 5.323 Q 35.61 4.774 35.804 4.315 A 3.691 3.691 0 0 1 35.861 4.186 A 3.38 3.38 0 0 1 36.43 3.325 A 2.955 2.955 0 0 1 37.023 2.828 Q 37.772 2.352 38.766 2.352 A 3.734 3.734 0 0 1 39.559 2.432 A 2.805 2.805 0 0 1 40.425 2.772 Q 41.118 3.192 41.489 3.955 A 3.605 3.605 0 0 1 41.799 4.952 A 4.854 4.854 0 0 1 41.86 5.74 Z M 50.288 6.23 Q 50.288 7.168 50.043 7.889 A 3.736 3.736 0 0 1 49.678 8.669 A 3.16 3.16 0 0 1 49.343 9.114 Q 48.888 9.618 48.237 9.877 A 3.655 3.655 0 0 1 47.272 10.111 A 4.526 4.526 0 0 1 46.788 10.136 A 3.725 3.725 0 0 1 45.821 10.014 A 3.325 3.325 0 0 1 45.416 9.877 Q 44.786 9.618 44.324 9.114 A 3.418 3.418 0 0 1 43.75 8.246 A 4.157 4.157 0 0 1 43.603 7.889 A 4.266 4.266 0 0 1 43.397 7.036 A 5.822 5.822 0 0 1 43.344 6.23 Q 43.344 4.984 43.764 4.123 Q 44.184 3.262 44.968 2.807 A 3.305 3.305 0 0 1 46.063 2.416 A 4.415 4.415 0 0 1 46.83 2.352 A 3.89 3.89 0 0 1 47.819 2.473 A 3.199 3.199 0 0 1 48.629 2.807 A 3.101 3.101 0 0 1 49.761 3.965 A 3.754 3.754 0 0 1 49.847 4.123 A 3.795 3.795 0 0 1 50.178 5.08 Q 50.288 5.607 50.288 6.23 Z M 44.618 6.23 A 5.675 5.675 0 0 0 44.662 6.958 Q 44.711 7.335 44.814 7.659 A 3.315 3.315 0 0 0 44.849 7.763 A 2.312 2.312 0 0 0 45.122 8.306 A 1.845 1.845 0 0 0 45.57 8.764 A 1.81 1.81 0 0 0 46.226 9.052 Q 46.48 9.11 46.775 9.114 A 3.219 3.219 0 0 0 46.816 9.114 A 2.681 2.681 0 0 0 47.365 9.061 Q 47.763 8.978 48.062 8.764 A 1.901 1.901 0 0 0 48.642 8.088 A 2.485 2.485 0 0 0 48.783 7.763 A 3.808 3.808 0 0 0 48.955 7.066 Q 49.014 6.678 49.014 6.23 A 5.628 5.628 0 0 0 48.975 5.548 Q 48.933 5.203 48.845 4.91 A 3.041 3.041 0 0 0 48.776 4.704 A 2.303 2.303 0 0 0 48.488 4.161 A 1.874 1.874 0 0 0 48.055 3.731 Q 47.572 3.388 46.802 3.388 A 2.737 2.737 0 0 0 46.161 3.458 A 1.666 1.666 0 0 0 45.136 4.144 Q 44.729 4.738 44.642 5.687 A 5.944 5.944 0 0 0 44.618 6.23 Z M 6.734 5.488 L 6.818 3.738 A 2.21 2.21 0 0 0 6.67 3.698 Q 6.532 3.666 6.356 3.64 Q 6.076 3.598 5.782 3.598 Q 5.184 3.598 4.788 3.853 A 1.355 1.355 0 0 0 4.676 3.934 Q 4.256 4.27 4.074 4.795 Q 3.892 5.32 3.892 5.894 A 3.558 3.558 0 0 0 3.92 6.358 Q 3.985 6.853 4.203 7.14 A 1.015 1.015 0 0 0 4.249 7.196 Q 4.606 7.602 5.208 7.602 A 1.631 1.631 0 0 0 5.655 7.545 A 1.114 1.114 0 0 0 6.335 7.014 A 2.605 2.605 0 0 0 6.58 6.433 Q 6.664 6.148 6.705 5.811 A 5.227 5.227 0 0 0 6.734 5.488 Z M 36.75 5.502 L 40.572 5.502 A 3.577 3.577 0 0 0 40.535 4.971 Q 40.486 4.65 40.376 4.382 A 1.706 1.706 0 0 0 40.042 3.856 A 1.592 1.592 0 0 0 39.781 3.633 A 1.482 1.482 0 0 0 39.294 3.421 Q 39.095 3.371 38.861 3.362 A 2.771 2.771 0 0 0 38.752 3.36 A 2.208 2.208 0 0 0 38.143 3.44 A 1.642 1.642 0 0 0 37.359 3.927 Q 36.848 4.494 36.75 5.502 Z" vector-effect="non-scaling-stroke"/></g>
</svg>