<svg width="94.08" height="14" viewBox="0 0 94.08 14" xmlns="http://www.w3.org/2000/svg"><g id="svgGroup" stroke-linecap="round" fill-rule="evenodd" font-size="9pt">

<style>
    path {
        fill: #1f2328;
    }
    @media (prefers-color-scheme: dark) {
        path {
            fill: #f0f6fc; 
        }
    }
</style>

<path d="M 50.302 7.896 L 50.232 7.896 Q 49.98 8.414 49.49 8.764 A 1.826 1.826 0 0 1 48.799 9.061 A 2.603 2.603 0 0 1 48.258 9.114 A 2.533 2.533 0 0 1 47.559 9.023 A 1.847 1.847 0 0 1 46.613 8.4 A 2.482 2.482 0 0 1 46.136 7.42 Q 46.045 7.058 46.034 6.633 A 4.616 4.616 0 0 1 46.032 6.51 Q 46.032 5.586 46.396 4.879 Q 46.76 4.172 47.425 3.766 A 2.744 2.744 0 0 1 48.442 3.402 A 3.608 3.608 0 0 1 49 3.36 Q 49.616 3.36 50.211 3.465 A 9.079 9.079 0 0 1 50.558 3.533 Q 50.874 3.601 51.092 3.678 A 2.499 2.499 0 0 1 51.142 3.696 L 51.002 6.538 Q 50.989 6.77 50.988 6.877 A 1.85 1.85 0 0 0 50.988 6.895 L 50.988 7.042 Q 50.988 7.584 51.132 7.855 A 0.567 0.567 0 0 0 51.247 8.008 Q 51.506 8.246 51.856 8.246 A 0.912 0.912 0 0 0 52.538 7.948 A 1.25 1.25 0 0 0 52.591 7.889 Q 52.852 7.579 53.008 7.091 A 3.618 3.618 0 0 0 53.053 6.937 A 4.606 4.606 0 0 0 53.191 6.147 A 5.776 5.776 0 0 0 53.214 5.628 A 5.393 5.393 0 0 0 53.127 4.636 Q 53.013 4.023 52.746 3.525 A 3.358 3.358 0 0 0 52.689 3.423 Q 52.164 2.52 51.247 2.044 A 4.243 4.243 0 0 0 49.734 1.598 A 5.261 5.261 0 0 0 49.168 1.568 A 6.388 6.388 0 0 0 48.053 1.661 A 4.879 4.879 0 0 0 47.054 1.946 A 4.353 4.353 0 0 0 45.904 2.63 A 3.979 3.979 0 0 0 45.507 3.01 Q 44.884 3.696 44.562 4.627 A 5.871 5.871 0 0 0 44.272 5.994 A 7.215 7.215 0 0 0 44.24 6.678 A 6.42 6.42 0 0 0 44.321 7.725 Q 44.439 8.44 44.73 9.009 Q 45.22 9.968 46.165 10.465 A 4.113 4.113 0 0 0 47.253 10.845 Q 47.729 10.944 48.277 10.959 A 7.313 7.313 0 0 0 48.482 10.962 A 6.964 6.964 0 0 0 49.912 10.819 A 6.385 6.385 0 0 0 50.113 10.773 Q 50.865 10.59 51.453 10.374 A 8.883 8.883 0 0 0 51.492 10.36 L 51.492 11.312 A 6.911 6.911 0 0 1 50.768 11.567 A 8.802 8.802 0 0 1 50.141 11.725 A 7.063 7.063 0 0 1 49.248 11.855 A 9.161 9.161 0 0 1 48.482 11.886 A 7.404 7.404 0 0 1 47.15 11.772 Q 46.363 11.628 45.717 11.302 A 4.617 4.617 0 0 1 45.654 11.27 Q 44.478 10.654 43.855 9.499 A 5.027 5.027 0 0 1 43.351 8.051 Q 43.234 7.44 43.232 6.742 A 8.417 8.417 0 0 1 43.232 6.72 A 7.34 7.34 0 0 1 43.415 5.056 A 6.435 6.435 0 0 1 43.638 4.305 A 5.584 5.584 0 0 1 44.76 2.431 A 5.409 5.409 0 0 1 44.814 2.373 Q 45.584 1.554 46.683 1.099 A 5.931 5.931 0 0 1 48.209 0.703 A 7.584 7.584 0 0 1 49.168 0.644 A 6.071 6.071 0 0 1 50.465 0.778 A 5.185 5.185 0 0 1 51.177 0.987 Q 52.094 1.33 52.773 1.981 A 4.429 4.429 0 0 1 53.8 3.499 A 5.082 5.082 0 0 1 53.823 3.556 A 5.094 5.094 0 0 1 54.142 4.804 A 6.514 6.514 0 0 1 54.194 5.642 Q 54.194 6.286 54.047 6.902 A 3.862 3.862 0 0 1 53.736 7.759 A 3.474 3.474 0 0 1 53.592 8.015 A 2.687 2.687 0 0 1 53.102 8.606 A 2.426 2.426 0 0 1 52.836 8.813 A 1.764 1.764 0 0 1 52.072 9.095 A 2.286 2.286 0 0 1 51.772 9.114 A 1.801 1.801 0 0 1 51.346 9.066 A 1.222 1.222 0 0 1 50.757 8.743 A 1.678 1.678 0 0 1 50.434 8.299 A 1.492 1.492 0 0 1 50.302 7.896 Z M 18.928 0 L 18.928 3.122 A 7.298 7.298 0 0 1 18.907 3.664 A 8.46 8.46 0 0 1 18.907 3.668 Q 18.886 3.944 18.859 4.165 A 7.767 7.767 0 0 1 18.858 4.172 L 18.942 4.172 Q 19.18 3.78 19.544 3.528 A 2.827 2.827 0 0 1 20.342 3.147 A 3.148 3.148 0 0 1 20.356 3.143 Q 20.804 3.01 21.28 3.01 A 4.791 4.791 0 0 1 21.92 3.05 Q 22.259 3.096 22.543 3.194 A 2.51 2.51 0 0 1 22.799 3.297 Q 23.408 3.584 23.716 4.186 Q 23.957 4.657 24.01 5.352 A 5.357 5.357 0 0 1 24.024 5.754 L 24.024 10.64 L 22.806 10.64 L 22.806 5.838 A 3.25 3.25 0 0 0 22.77 5.338 Q 22.686 4.795 22.4 4.48 Q 21.994 4.032 21.126 4.032 A 3.652 3.652 0 0 0 20.637 4.063 Q 20.137 4.13 19.81 4.347 A 1.646 1.646 0 0 0 19.225 5.036 A 2.146 2.146 0 0 0 19.131 5.271 A 3.601 3.601 0 0 0 18.996 5.833 Q 18.928 6.252 18.928 6.762 L 18.928 10.64 L 17.696 10.64 L 17.696 0 L 18.928 0 Z M 5.432 4.13 L 5.502 4.13 L 5.67 3.136 L 6.65 3.136 L 6.65 10.766 A 5.159 5.159 0 0 1 6.595 11.545 Q 6.53 11.966 6.392 12.316 A 2.845 2.845 0 0 1 6.286 12.551 Q 5.922 13.272 5.18 13.636 A 3.249 3.249 0 0 1 4.453 13.885 Q 3.936 14 3.29 14 A 9.655 9.655 0 0 1 2.424 13.963 A 7.547 7.547 0 0 1 1.799 13.881 A 5.784 5.784 0 0 1 1.119 13.721 A 4.49 4.49 0 0 1 0.588 13.524 L 0.588 12.39 A 4.253 4.253 0 0 0 1.205 12.652 A 5.716 5.716 0 0 0 1.834 12.824 Q 2.548 12.978 3.36 12.978 A 2.65 2.65 0 0 0 3.998 12.906 A 1.811 1.811 0 0 0 4.879 12.411 A 1.886 1.886 0 0 0 5.365 11.495 A 2.817 2.817 0 0 0 5.432 10.864 L 5.432 10.57 Q 5.432 10.441 5.44 10.227 A 22.482 22.482 0 0 1 5.446 10.087 Q 5.459 9.797 5.472 9.667 A 1.825 1.825 0 0 1 5.474 9.646 L 5.418 9.646 A 2.581 2.581 0 0 1 4.838 10.261 A 2.353 2.353 0 0 1 4.445 10.5 Q 3.864 10.78 3.094 10.78 A 3.324 3.324 0 0 1 2.092 10.636 A 2.603 2.603 0 0 1 0.819 9.758 Q 0.141 8.912 0.024 7.508 A 7.33 7.33 0 0 1 0 6.902 A 6.371 6.371 0 0 1 0.097 5.757 Q 0.217 5.102 0.485 4.58 A 3.377 3.377 0 0 1 0.819 4.053 A 2.64 2.64 0 0 1 2.751 3.011 A 3.655 3.655 0 0 1 3.08 2.996 A 3.384 3.384 0 0 1 3.868 3.085 A 2.828 2.828 0 0 1 4.417 3.276 A 2.601 2.601 0 0 1 5.324 3.991 A 3.105 3.105 0 0 1 5.432 4.13 Z M 31.388 3.136 L 32.62 3.136 L 32.62 10.64 L 31.612 10.64 L 31.43 9.646 L 31.374 9.646 Q 31.136 10.038 30.758 10.29 Q 30.38 10.542 29.932 10.661 A 3.628 3.628 0 0 1 29.025 10.78 A 4.013 4.013 0 0 1 28.994 10.78 A 4.641 4.641 0 0 1 28.338 10.736 Q 27.86 10.668 27.489 10.493 Q 26.88 10.206 26.572 9.604 A 2.547 2.547 0 0 1 26.363 9.016 Q 26.298 8.736 26.276 8.407 A 5.284 5.284 0 0 1 26.264 8.05 L 26.264 3.136 L 27.51 3.136 L 27.51 7.966 A 3.163 3.163 0 0 0 27.546 8.459 Q 27.587 8.718 27.675 8.926 A 1.351 1.351 0 0 0 27.916 9.31 A 1.256 1.256 0 0 0 28.454 9.653 Q 28.656 9.722 28.904 9.746 A 2.857 2.857 0 0 0 29.176 9.758 A 3.63 3.63 0 0 0 29.689 9.724 Q 29.955 9.686 30.172 9.606 A 1.637 1.637 0 0 0 30.499 9.443 A 1.647 1.647 0 0 0 31.107 8.72 A 2.136 2.136 0 0 0 31.185 8.519 A 3.639 3.639 0 0 0 31.324 7.937 Q 31.37 7.645 31.383 7.31 A 6.913 6.913 0 0 0 31.388 7.042 L 31.388 3.136 Z M 36.232 0 L 36.232 2.59 A 19.506 19.506 0 0 1 36.227 3.05 A 15.797 15.797 0 0 1 36.211 3.479 A 18.295 18.295 0 0 1 36.2 3.675 Q 36.187 3.887 36.172 4.041 A 5.037 5.037 0 0 1 36.162 4.13 L 36.232 4.13 A 2.496 2.496 0 0 1 36.848 3.503 A 3.079 3.079 0 0 1 37.114 3.332 A 2.236 2.236 0 0 1 37.704 3.102 Q 37.965 3.039 38.27 3.019 A 4.409 4.409 0 0 1 38.556 3.01 Q 39.956 3.01 40.803 3.983 A 3.068 3.068 0 0 1 41.382 5.018 Q 41.539 5.477 41.604 6.04 A 7.404 7.404 0 0 1 41.65 6.888 Q 41.65 8.176 41.265 9.044 Q 40.88 9.912 40.18 10.346 A 2.895 2.895 0 0 1 38.95 10.759 A 3.647 3.647 0 0 1 38.556 10.78 Q 37.674 10.78 37.114 10.458 Q 36.554 10.136 36.232 9.688 L 36.134 9.688 L 35.882 10.64 L 35 10.64 L 35 0 L 36.232 0 Z M 62.188 6.384 L 62.188 7.126 L 57.05 7.126 A 4.274 4.274 0 0 0 57.129 7.88 Q 57.213 8.292 57.383 8.616 A 2.055 2.055 0 0 0 57.701 9.065 A 2.036 2.036 0 0 0 58.763 9.658 A 3.063 3.063 0 0 0 59.444 9.73 A 6.534 6.534 0 0 0 60.078 9.701 Q 60.395 9.67 60.672 9.606 A 3.919 3.919 0 0 0 60.711 9.597 A 6.756 6.756 0 0 0 61.484 9.36 A 8.077 8.077 0 0 0 61.852 9.212 L 61.852 10.29 A 6.053 6.053 0 0 1 61.008 10.591 A 5.307 5.307 0 0 1 60.718 10.661 A 5.017 5.017 0 0 1 60.193 10.742 Q 59.922 10.77 59.615 10.777 A 9.365 9.365 0 0 1 59.388 10.78 Q 58.324 10.78 57.505 10.346 Q 56.686 9.912 56.231 9.051 A 3.737 3.737 0 0 1 55.883 8.061 Q 55.776 7.548 55.776 6.944 A 6.163 6.163 0 0 1 55.85 5.967 Q 55.938 5.418 56.132 4.959 A 3.691 3.691 0 0 1 56.189 4.83 A 3.38 3.38 0 0 1 56.758 3.969 A 2.955 2.955 0 0 1 57.351 3.472 Q 58.1 2.996 59.094 2.996 A 3.734 3.734 0 0 1 59.887 3.076 A 2.805 2.805 0 0 1 60.753 3.416 Q 61.446 3.836 61.817 4.599 A 3.605 3.605 0 0 1 62.127 5.596 A 4.854 4.854 0 0 1 62.188 6.384 Z M 16.198 9.618 L 16.198 10.556 Q 16.011 10.65 15.67 10.711 A 4.188 4.188 0 0 1 15.638 10.717 Q 15.274 10.78 14.938 10.78 Q 14.35 10.78 13.853 10.577 A 1.635 1.635 0 0 1 13.144 10.013 A 2.07 2.07 0 0 1 13.048 9.87 A 1.822 1.822 0 0 1 12.854 9.414 Q 12.792 9.193 12.764 8.928 A 4.459 4.459 0 0 1 12.74 8.456 L 12.74 4.088 L 11.676 4.088 L 11.676 3.5 L 12.754 3.01 L 13.244 1.414 L 13.972 1.414 L 13.972 3.136 L 16.142 3.136 L 16.142 4.088 L 13.972 4.088 L 13.972 8.428 A 2.268 2.268 0 0 0 14.001 8.804 Q 14.07 9.212 14.301 9.443 A 1.11 1.11 0 0 0 14.998 9.765 A 1.508 1.508 0 0 0 15.148 9.772 A 3.463 3.463 0 0 0 15.676 9.73 A 3.826 3.826 0 0 0 15.722 9.723 A 5.768 5.768 0 0 0 15.911 9.688 Q 15.995 9.672 16.067 9.654 A 2.373 2.373 0 0 0 16.198 9.618 Z M 87.514 9.618 L 87.514 10.556 Q 87.327 10.65 86.986 10.711 A 4.188 4.188 0 0 1 86.954 10.717 Q 86.59 10.78 86.254 10.78 Q 85.666 10.78 85.169 10.577 A 1.635 1.635 0 0 1 84.46 10.013 A 2.07 2.07 0 0 1 84.364 9.87 A 1.822 1.822 0 0 1 84.17 9.414 Q 84.108 9.193 84.08 8.928 A 4.459 4.459 0 0 1 84.056 8.456 L 84.056 4.088 L 82.992 4.088 L 82.992 3.5 L 84.07 3.01 L 84.56 1.414 L 85.288 1.414 L 85.288 3.136 L 87.458 3.136 L 87.458 4.088 L 85.288 4.088 L 85.288 8.428 A 2.268 2.268 0 0 0 85.317 8.804 Q 85.386 9.212 85.617 9.443 A 1.11 1.11 0 0 0 86.314 9.765 A 1.508 1.508 0 0 0 86.464 9.772 A 3.463 3.463 0 0 0 86.992 9.73 A 3.826 3.826 0 0 0 87.038 9.723 A 5.768 5.768 0 0 0 87.227 9.688 Q 87.311 9.672 87.383 9.654 A 2.373 2.373 0 0 0 87.514 9.618 Z M 78.554 3.402 L 78.176 4.424 A 5.87 5.87 0 0 0 77.861 4.316 Q 77.644 4.249 77.392 4.186 A 3.889 3.889 0 0 0 76.919 4.097 A 3.039 3.039 0 0 0 76.552 4.074 A 2.928 2.928 0 0 0 76.023 4.119 Q 75.708 4.177 75.455 4.309 A 1.692 1.692 0 0 0 75.306 4.396 A 1.792 1.792 0 0 0 74.718 5.044 A 2.362 2.362 0 0 0 74.578 5.348 Q 74.385 5.858 74.349 6.571 A 6.73 6.73 0 0 0 74.34 6.916 A 5.628 5.628 0 0 0 74.379 7.599 Q 74.421 7.943 74.509 8.236 A 3.041 3.041 0 0 0 74.578 8.442 A 2.279 2.279 0 0 0 74.832 8.934 A 1.747 1.747 0 0 0 75.292 9.394 A 1.814 1.814 0 0 0 75.932 9.661 Q 76.179 9.714 76.464 9.716 A 3.141 3.141 0 0 0 76.482 9.716 A 5.145 5.145 0 0 0 76.993 9.692 Q 77.26 9.665 77.492 9.609 A 3.033 3.033 0 0 0 77.567 9.59 Q 78.036 9.464 78.428 9.282 L 78.428 10.374 A 3.415 3.415 0 0 1 77.79 10.625 A 3.963 3.963 0 0 1 77.595 10.675 Q 77.241 10.757 76.774 10.775 A 7.153 7.153 0 0 1 76.496 10.78 A 4.163 4.163 0 0 1 75.501 10.665 A 3.439 3.439 0 0 1 74.725 10.374 A 2.777 2.777 0 0 1 73.638 9.345 A 3.481 3.481 0 0 1 73.507 9.114 Q 73.146 8.414 73.08 7.394 A 7.281 7.281 0 0 1 73.066 6.93 Q 73.066 5.544 73.528 4.676 Q 73.99 3.808 74.781 3.402 A 3.675 3.675 0 0 1 76.03 3.028 A 4.591 4.591 0 0 1 76.58 2.996 Q 77.154 2.996 77.686 3.115 A 5.439 5.439 0 0 1 78.05 3.209 Q 78.223 3.26 78.368 3.319 A 2.509 2.509 0 0 1 78.554 3.402 Z M 94.08 3.402 L 93.702 4.424 A 5.87 5.87 0 0 0 93.387 4.316 Q 93.17 4.249 92.918 4.186 A 3.889 3.889 0 0 0 92.445 4.097 A 3.039 3.039 0 0 0 92.078 4.074 A 2.928 2.928 0 0 0 91.549 4.119 Q 91.234 4.177 90.981 4.309 A 1.692 1.692 0 0 0 90.832 4.396 A 1.792 1.792 0 0 0 90.244 5.044 A 2.362 2.362 0 0 0 90.104 5.348 Q 89.911 5.858 89.875 6.571 A 6.73 6.73 0 0 0 89.866 6.916 A 5.628 5.628 0 0 0 89.905 7.599 Q 89.947 7.943 90.035 8.236 A 3.041 3.041 0 0 0 90.104 8.442 A 2.279 2.279 0 0 0 90.358 8.934 A 1.747 1.747 0 0 0 90.818 9.394 A 1.814 1.814 0 0 0 91.458 9.661 Q 91.705 9.714 91.99 9.716 A 3.141 3.141 0 0 0 92.008 9.716 A 5.145 5.145 0 0 0 92.519 9.692 Q 92.786 9.665 93.018 9.609 A 3.033 3.033 0 0 0 93.093 9.59 Q 93.562 9.464 93.954 9.282 L 93.954 10.374 A 3.415 3.415 0 0 1 93.316 10.625 A 3.963 3.963 0 0 1 93.121 10.675 Q 92.767 10.757 92.3 10.775 A 7.153 7.153 0 0 1 92.022 10.78 A 4.163 4.163 0 0 1 91.027 10.665 A 3.439 3.439 0 0 1 90.251 10.374 A 2.777 2.777 0 0 1 89.164 9.345 A 3.481 3.481 0 0 1 89.033 9.114 Q 88.672 8.414 88.606 7.394 A 7.281 7.281 0 0 1 88.592 6.93 Q 88.592 5.544 89.054 4.676 Q 89.516 3.808 90.307 3.402 A 3.675 3.675 0 0 1 91.556 3.028 A 4.591 4.591 0 0 1 92.106 2.996 Q 92.68 2.996 93.212 3.115 A 5.439 5.439 0 0 1 93.576 3.209 Q 93.749 3.26 93.894 3.319 A 2.509 2.509 0 0 1 94.08 3.402 Z M 68.474 3.08 L 68.32 4.214 A 3.723 3.723 0 0 0 68.104 4.171 A 4.718 4.718 0 0 0 67.921 4.144 Q 67.704 4.116 67.508 4.116 Q 67.074 4.116 66.682 4.298 Q 66.29 4.48 65.982 4.809 A 2.306 2.306 0 0 0 65.569 5.431 A 2.728 2.728 0 0 0 65.499 5.6 A 2.679 2.679 0 0 0 65.347 6.238 A 3.401 3.401 0 0 0 65.324 6.636 L 65.324 10.64 L 64.092 10.64 L 64.092 3.136 L 65.1 3.136 L 65.24 4.508 L 65.296 4.508 Q 65.534 4.088 65.87 3.745 Q 66.206 3.402 66.64 3.199 A 2.182 2.182 0 0 1 67.464 2.999 A 2.567 2.567 0 0 1 67.592 2.996 A 4.822 4.822 0 0 1 67.839 3.003 A 6.106 6.106 0 0 1 68.047 3.017 A 3.986 3.986 0 0 1 68.222 3.036 Q 68.317 3.048 68.401 3.064 A 2.201 2.201 0 0 1 68.474 3.08 Z M 9.03 3.136 L 10.262 3.136 L 10.262 10.64 L 9.03 10.64 L 9.03 3.136 Z M 69.874 3.136 L 71.106 3.136 L 71.106 10.64 L 69.874 10.64 L 69.874 3.136 Z M 5.446 7.196 L 5.446 6.902 Q 5.446 5.88 5.215 5.25 A 2.066 2.066 0 0 0 4.977 4.782 A 1.56 1.56 0 0 0 4.494 4.326 Q 4.066 4.069 3.434 4.037 A 3.64 3.64 0 0 0 3.248 4.032 A 1.964 1.964 0 0 0 2.707 4.103 A 1.584 1.584 0 0 0 2.177 4.368 A 1.819 1.819 0 0 0 1.728 4.875 A 2.575 2.575 0 0 0 1.505 5.348 A 3.618 3.618 0 0 0 1.347 5.965 Q 1.274 6.396 1.274 6.916 Q 1.274 7.808 1.486 8.43 A 2.423 2.423 0 0 0 1.785 9.037 A 1.645 1.645 0 0 0 2.981 9.754 A 2.346 2.346 0 0 0 3.276 9.772 A 3.747 3.747 0 0 0 3.715 9.748 Q 4.015 9.712 4.256 9.625 Q 4.662 9.478 4.928 9.163 A 1.749 1.749 0 0 0 5.183 8.753 A 2.414 2.414 0 0 0 5.32 8.358 A 3.696 3.696 0 0 0 5.406 7.894 Q 5.436 7.654 5.444 7.381 A 6.768 6.768 0 0 0 5.446 7.196 Z M 36.232 6.846 L 36.232 6.902 A 6.784 6.784 0 0 0 36.274 7.686 Q 36.371 8.512 36.687 9.023 A 1.426 1.426 0 0 0 37.445 9.617 Q 37.701 9.71 38.021 9.741 A 3.582 3.582 0 0 0 38.374 9.758 A 2.163 2.163 0 0 0 38.994 9.674 A 1.583 1.583 0 0 0 39.879 9.016 Q 40.376 8.274 40.376 6.874 Q 40.376 5.46 39.879 4.746 A 1.611 1.611 0 0 0 38.802 4.071 A 2.52 2.52 0 0 0 38.346 4.032 A 3.436 3.436 0 0 0 37.859 4.064 Q 37.397 4.131 37.086 4.333 A 1.512 1.512 0 0 0 36.572 4.907 A 2.094 2.094 0 0 0 36.428 5.257 A 3.709 3.709 0 0 0 36.309 5.772 Q 36.232 6.242 36.232 6.846 Z M 49.966 6.132 L 50.05 4.382 A 2.21 2.21 0 0 0 49.902 4.342 Q 49.764 4.31 49.588 4.284 Q 49.308 4.242 49.014 4.242 Q 48.416 4.242 48.02 4.497 A 1.355 1.355 0 0 0 47.908 4.578 Q 47.488 4.914 47.306 5.439 Q 47.124 5.964 47.124 6.538 A 3.558 3.558 0 0 0 47.152 7.002 Q 47.217 7.497 47.435 7.784 A 1.015 1.015 0 0 0 47.481 7.84 Q 47.838 8.246 48.44 8.246 A 1.631 1.631 0 0 0 48.887 8.189 A 1.114 1.114 0 0 0 49.567 7.658 A 2.605 2.605 0 0 0 49.812 7.077 Q 49.896 6.792 49.937 6.455 A 5.227 5.227 0 0 0 49.966 6.132 Z M 57.078 6.146 L 60.9 6.146 A 3.577 3.577 0 0 0 60.863 5.615 Q 60.814 5.294 60.704 5.026 A 1.706 1.706 0 0 0 60.37 4.499 A 1.592 1.592 0 0 0 60.109 4.277 A 1.482 1.482 0 0 0 59.622 4.064 Q 59.423 4.015 59.19 4.006 A 2.771 2.771 0 0 0 59.08 4.004 A 2.208 2.208 0 0 0 58.471 4.084 A 1.642 1.642 0 0 0 57.687 4.571 Q 57.176 5.138 57.078 6.146 Z M 80.042 9.631 A 1.676 1.676 0 0 0 80.024 9.884 Q 80.024 10.152 80.095 10.34 A 0.673 0.673 0 0 0 80.276 10.612 Q 80.528 10.836 80.878 10.836 A 1.163 1.163 0 0 0 80.906 10.836 A 0.915 0.915 0 0 0 81.501 10.612 A 0.652 0.652 0 0 0 81.663 10.396 Q 81.715 10.286 81.74 10.145 A 1.551 1.551 0 0 0 81.76 9.884 Q 81.76 9.601 81.683 9.41 A 0.617 0.617 0 0 0 81.501 9.156 Q 81.242 8.946 80.878 8.946 Q 80.528 8.946 80.276 9.156 Q 80.091 9.31 80.042 9.631 Z M 9.66 0.322 Q 9.94 0.322 10.157 0.511 A 0.583 0.583 0 0 1 10.325 0.768 Q 10.374 0.913 10.374 1.106 A 1.126 1.126 0 0 1 10.353 1.332 Q 10.326 1.465 10.263 1.567 A 0.583 0.583 0 0 1 10.157 1.694 Q 9.94 1.89 9.66 1.89 A 0.799 0.799 0 0 1 9.385 1.844 A 0.708 0.708 0 0 1 9.142 1.694 Q 8.959 1.523 8.936 1.203 A 1.33 1.33 0 0 1 8.932 1.106 Q 8.932 0.7 9.142 0.511 A 0.731 0.731 0 0 1 9.594 0.324 A 0.954 0.954 0 0 1 9.66 0.322 Z M 70.504 0.322 Q 70.784 0.322 71.001 0.511 A 0.583 0.583 0 0 1 71.169 0.768 Q 71.218 0.913 71.218 1.106 A 1.126 1.126 0 0 1 71.197 1.332 Q 71.17 1.465 71.107 1.567 A 0.583 0.583 0 0 1 71.001 1.694 Q 70.784 1.89 70.504 1.89 A 0.799 0.799 0 0 1 70.229 1.844 A 0.708 0.708 0 0 1 69.986 1.694 Q 69.803 1.523 69.78 1.203 A 1.33 1.33 0 0 1 69.776 1.106 Q 69.776 0.7 69.986 0.511 A 0.731 0.731 0 0 1 70.438 0.324 A 0.954 0.954 0 0 1 70.504 0.322 Z" vector-effect="non-scaling-stroke"/></g>
</svg>